<svg version="1" xmlns="http://www.w3.org/2000/svg" width="1600" height="1600" viewBox="0 0 1200.000000 1200.000000"><path d="M0 604.5V1200h1193V9H0v595.5zm699.8-492.9c25.2 3.9 41.6 17.6 48.7 40.9 5.5 17.9 5.5 18.4 5.5 158.8 0 85.6-.3 129.8-1 130.2-.6.3-.7 1.7-.4 3.1.5 2 .2 2.6-1.6 3.1-1.7.5-2 1.1-1.5 3.1.4 1.5.1 2.8-.6 3.3-.8.5-1.2 2.6-1 5.7.1 2.8-.3 5.3-.8 5.7-.6.3-1 2.9-.9 5.8.1 3.9-.5 6.5-2.5 10.2-1.5 2.7-2.7 5.7-2.7 6.6 0 .9-.7 2.2-1.5 2.9-1.3 1-1.7.7-3-2.3-.8-2-1.5-4.1-1.5-4.7 0-1.6-1.7-1.2-2.4.6-.3.9-.6 2.9-.6 4.4 0 3.5-1.9 4.9-3.5 2.7-1.9-2.6-2.5-2-2.5 2.3 0 4.1-.7 4.9-2.8 2.8-1.3-1.3-1.9-.2-2.4 4.2-.2 1.4-.9 2.5-1.6 2.5-1.9 0-3.2 2.5-3.2 6.2 0 2.6-.3 3-2 2.6-1.6-.4-2 0-2 1.7 0 1.3-.8 2.4-2 2.7-1.4.4-2 1.4-2.1 3.7 0 1.7-.4 4-.8 5-.7 1.9-.8 1.9-1.3-.1-.5-1.7-1.2-2.1-3.4-1.9-3.1.3-4.6 3.2-5.9 11.1l-.7 4-1.6-3-1.6-3-.8 3.5c-1.9 7.7-2.4 8.5-4.2 8.2-.9-.2-2.4.2-3.2.9-2.4 2-3 .1-3.5-10.6 0-.6.3-2.9.7-5.3.5-3.4 1.2-4.6 3.1-5.3l2.5-.9-2.4-1.9c-1.9-1.7-2.1-2.3-1.1-3.9.9-1.6.8-2.2-.5-3.6-1.3-1.3-1.4-2-.5-3.5 1-1.5.9-2.2-.3-3.1-1-.9-1.1-1.6-.4-2.5.7-.9.6-1.6-.5-2.5-2-1.6-1.9-3.9.1-4.7 1.2-.4.9-.9-1.5-1.9-2.3-1-3.1-2-3.1-3.7 0-1.4-.7-2.7-1.5-3.1-1.1-.4-1.4-1.3-.9-3.1.6-2.4.4-2.5-2-1.9-3.5.8-7.8-1.9-7.4-4.8.2-1.7-.4-2.3-2.9-3-3.7-1-5-2.5-3.4-4.1 1.8-1.8 1.3-3.6-.9-3-1.7.5-2 0-2-2.7 0-3.1-.1-3.2-3.2-2.6-1.8.3-4 .1-4.8-.5-1.3-.8-1.1-1.2 1-2.7 4.9-3.4 7-6.1 7-9.2 0-2.7.6-3.3 5.3-5.4 7.5-3.3 28.4-20.4 48.1-39.4 9.3-8.9 19.6-17.9 22.8-20 10.4-6.4 11.1-7.3 11.8-13.6.3-3.2.3-5.9-.2-6.2-1.2-.8-3.9 1-17.1 10.9-19.9 14.9-26.4 20.6-36.4 32-9.6 10.9-30.1 28.7-36 31.3-1.8.8-4.8 2-6.5 2.8-1.8.8-6.7 4.4-11 8-8 7-10.7 7.9-13.5 4.6-1-1.1-2.7-2-3.9-2-1.2 0-2.7-.7-3.4-1.5-1.6-1.9-.7-2.6 10.1-9 8.9-5.3 10.6-7 11.1-11 .2-2.5 1.3-3.5 6.3-6.1 7.5-4 29.5-21.8 42.9-34.7 21.7-21.1 24.7-23.7 29.5-26.1 6.2-3.2 9.1-6.8 9.1-11.5 0-4.6 1.1-6.3 3-5.1 2.6 1.7 8.3 1.1 13.8-1.5 5.6-2.6 5.7-2.7 4.2-5.4-.7-1.3-1.7-1.7-3.6-1.3l-2.7.5.6-5.4c.4-3 2.1-11.7 3.8-19.4 3.5-16.3 4.8-27.9 3-28.9-.7-.4-4.3-.2-8 .4l-6.8 1.1-.6 9.2c-.3 5.2-2.1 16.1-4.2 25.2-2.3 9.9-3.5 17.4-3.2 19.7.3 2.5.1 3.5-.7 3.2-1.3-.5-5.6 2.3-20.8 13.4-15.9 11.6-25.1 19.7-31.2 27.1C659.9 401 637.5 420 630 422c-3.7 1-18.2 12.1-23.4 17.9-1.1 1.1-2.3 2.1-2.7 2.1-.4 0-.9-2.6-1.1-5.8l-.3-5.7-3.6 5.2c-3.5 5.2-4.9 5.8-4.9 2.1 0-1.6-.5-1.9-2.9-1.3-2.8.6-3 .4-3.7-3.2-.9-5.4-1.1-5.4-4.8-3.3-3.8 2.1-4.6 1.8-4.6-1.7 0-3.6-1.5-2.7-3.4 1.9-1.4 3.7-1.8 4-2.7 2.5-1.5-2.6-2.6-2.1-3.3 1.8-.4 2.1-1.1 3.3-1.7 2.9-.6-.3-2.2-.1-3.5.6-1.9 1.1-2.6 1.1-3.9 0-1.3-1.1-1.5-.9-1.5 1.3 0 1.4-.4 2.8-.8 3.1-.5.3-5.8-2.8-11.8-6.9-8.5-5.8-12.3-7.8-17.3-8.9-10.4-2.4-29.9-14.8-43.5-27.6-12.6-12-16.1-14.6-29.9-21.9-6.8-3.7-9.8-5.9-10.2-7.4-.2-1.2-.6-22.7-.8-47.7-.3-28.9-1.1-54.1-2.2-69-1.8-25.4-1.6-65.2.4-78.5 3.5-22.7 10.1-38.4 20.6-49.1 8.4-8.6 16.5-12.3 34-15.7 1.1-.2 45.2-.2 98 0 76.2.4 97.9.8 105.3 1.9zm-246 287.2c2.8 1.1 6.9 3.5 9 5.1 19.3 15.7 56 41.3 64.6 45.2 1.6.7 2.6 2.2 2.9 4.3.3 1.7.9 4.4 1.3 6.1l.7 2.9-3.2-2.7c-3.4-2.9-5.6-3.5-4.8-1.5 2.1 5.6 1.7 7.4-1.1 4.6-1.7-1.7-2.7 1.5-1.2 4.1 1.5 2.8-.7 3.7-5.5 2.1-2.2-.7-5.9-.9-9.9-.5-6.1.7-6.5.9-6.8 3.4-.2 2-.9 2.7-3.1 2.9-2.2.3-2.7.7-2.2 2 1.6 3.9 1.7 5.7.5 12.8-.9 6-.9 8.5.1 12.5s1.1 5.4.1 7c-1.1 1.7-.9 2.1 1.3 2.9 2.6 1 3.2 2.4 1.5 3.5-1.7 1.1-1.1 2.3 1.3 2.7 2.2.3 2.4 1.3 1.1 5.5-.5 2-.3 2.3 2 2.3 3.7 0 5.7 4.2 3.3 6.8-2.3 2.5-2.1 3 1.1 3.4l2.7.3-.1 10.3c-.1 5.6-.4 10.5-.7 10.8-1 1-6.8-2.7-7.9-5.1-.8-1.9-1.6-2.3-3.3-1.9-1.8.5-2.5 0-3.3-2.6-1.1-3-3.2-3.4-3.2-.6 0 2.4-5.8 1.2-9.2-1.8-3.4-3-3.8-2.8-6.8 2.4-.7 1.1-1.1 1.2-2.4.1-.8-.7-2.4-1-3.4-.7-1.6.5-2.1-.1-3.2-4.1-1.6-5.9-1.6-5.9-3.6-4.3-1.3 1.2-1.7 1.1-2.5-.1-.5-.8-.9-2.5-.9-3.9 0-3.1-.7-4-4.3-6.3-2.1-1.3-3.2-1.5-4.1-.8-1.7 1.4-2.6.4-2.6-3.1 0-1.9-.5-2.8-1.6-2.8-2 0-3.9-2.2-6-6.8-1.5-3.3-2.8-4-4-2.1-.9 1.6-2.4-1-2.4-4.4 0-2.9-.9-3.4-2.7-1.6-1.9 1.9-3.3 0-3.3-4.5 0-2.7-.6-4.8-1.5-5.6-.8-.7-1.5-2.9-1.5-5 0-3.9-2.1-9-4.5-11-.8-.7-1.5-2.1-1.5-3.1 0-1.1-.4-1.9-.9-1.9s-2.6-1.6-4.5-3.5c-2-1.9-4.1-3.5-4.6-3.5-1.3 0-4-4.1-4-6.2 0-1.7 1.4-1.8 17.3-1.8 9.4 0 17.9-.5 18.7-1 1.9-1.2 2.8-13.2 2.9-41 .1-11.3.4-21.5.7-22.8.6-2 .9-2.1 2.3-.9.9.7 4 2.3 6.9 3.5zm85.6 54.8c.9.3 1.6 1 1.6 1.5 0 1.4-2.6 1-4-.6-1.3-1.6-.3-2 2.4-.9zm-252.2 7l87.7.6 2.7 2.5c2.4 2.2 2.6 2.8 1.4 4.6-1.1 1.9-1 2.4 1.8 4.7l3.2 2.6-2.2 2.1-2.1 2.2 3.7 1.5c3.5 1.4 4.7 3.8 2.6 5.1-1.7 1.1-1.1 2.4 1.5 3.1 1.7.4 3.1 2 4.5 5.2 1.7 3.9 1.9 5.1.9 8-1 3.1-.9 3.7.7 4.9 1 .7 2.5 1.3 3.5 1.3.9 0 2.2.7 3 1.6 1.4 1.7 1.3 8.7-.2 11.5-.8 1.6-.4 2.1 2.6 3.3 2.3 1 3.5 2.2 3.5 3.5 0 1.4.8 2.1 2.8 2.3 2.1.2 2.8.9 3 3.2.3 2.4.7 2.7 2.8 2.3 2-.4 2.7.1 3.8 2.8.8 1.8 1.8 3.5 2.4 3.9.6.3.8 1.6.5 2.7-.5 1.9-.3 2.1 2.7 1.4 2.9-.6 3.1-.5 2.5 1.4-.7 2.2-.1 2.5 4.2 2.1 1.5-.1 2.2.5 2.5 2.1.2 1.6 1.3 2.5 3.6 3.1 1.7.5 3.2 1.4 3.2 2.1 0 .7.9 1.8 2.1 2.5 1.2.8 1.8 1.9 1.5 2.8-.4 1 .2 1.4 1.9 1.4 2 0 2.4.5 2.2 2.2-.2 2.1.2 2.3 3.5 2 3.2-.3 3.9 0 4.9 2.2.8 1.7 2.1 2.6 4.3 2.8 2.3.2 3.2.8 3.4 2.5.3 1.8 1 2.3 3.2 2.3 3.6 0 5.8 3.3 3.9 5.7-1.2 1.3-.7 1.5 3.6 1.2 4.2-.3 5-.1 4.9 1.3-.1 1.3.9 2 3.5 2.5 2 .4 3.9.8 4.4.9.4.1 1.5.2 2.4.3 1.3.1 1.4.4.5 1.3-2.1 2.1-1.3 2.8 3.3 2.8 4.5 0 6 1.2 2.9 2.4-6.3 2.4-24.8-1.9-83.9-19.4-24.4-7.2-101-28.2-116-31.7-8.2-2-19.5-4.6-25-5.9-25.9-6.2-50.7-10.8-86-15.9-11-1.6-30-2.1-38.5-.9-8.9 1.2-25.6 5.7-32 8.6-7.9 3.5-12.7 8-19.1 17.7-4.7 7.1-5.9 10.1-4 10.1.5 0 5.1-3.9 10.2-8.6 10.7-9.8 22.1-17.8 28.2-19.6 5.5-1.7 52.4-1.6 70.2.1 16.1 1.6 38.1 5.8 63.4 12.1 19.3 4.9 22.1 6 22.1 8.6 0 1.7-13 1.9-19.5.4-2.2-.5-13-2.3-24-4-52.1-8.1-51.5-8.1-79.7-6.6-9.4.5-14.7 1.2-14.5 1.9.1.5-2.7 2.2-6.4 3.6-31.3 12.4-39.8 31.7-27.2 61.5 8.4 19.9 43.8 59.8 68.6 77.5 3.4 2.4 9.6 6 13.7 8 7.5 3.6 7.5 3.6 24 4.1 9.1.3 19.4.2 22.9-.2 3.6-.4 6.7-.5 7-.3.2.3-.5 1.5-1.6 2.8-3.3 3.7-3.5 5.6-.8 10.8 1.7 3.5 2.1 5.1 1.2 5.4-.6.2-20.8.6-44.7.9-54.8.6-74.3 2.6-80.7 8-2.5 2.2-2.6 2.5-1.4 5.5.8 1.7 2.6 4.2 4.2 5.5 5.8 4.9 22.7 9.4 43.4 11.6 17.3 1.9 66.2 2.4 98.3 1.1l30.3-1.3 9 4.3c5.4 2.6 8.5 4.5 7.7 4.9-1.3.7-18.1 2.1-51.3 4.2-24.9 1.6-82.6 1.6-98 0-35.7-3.7-59-11.7-72.6-25.2-7.5-7.4-11.3-14.5-12.8-24.1-1.4-8.6-1.5-194.9-.1-203.9 4.3-27.1 24.8-43.5 60-47.9 13.9-1.8 16.6-1.9 38-1.5 11.3.2 60 .7 108.2 1zm742.7-.6c30.1 1.5 51.3 5.1 62.2 10.6 14 7 24.4 27.5 28.9 57.1 1.8 12.2 2 17.3 1.7 43.3-.3 25.7-2.5 65.4-4.2 77.5-.3 2.2-1 16.6-1.5 32-.9 30.5-1.9 37.1-7.5 49-3.9 8.1-13.1 17.3-22 21.7-14.8 7.4-8.9 7-126 7.2-57.7.1-105.7 0-106.5-.3-.8-.3.8-1 3.5-1.7 2.8-.7 8.2-2.3 12-3.7 6.6-2.3 8.7-2.5 33.5-3.1 76.7-1.9 161.7-7.5 178.5-11.8 2.1-.5 5.9-1.9 8.2-3 3.5-1.7 4.3-2.5 4.3-4.8 0-1.5-.8-3.4-1.8-4.3-6-5.4-33.3-7.2-105.9-6.9-31 .1-56.3-.1-56.3-.5 0-.5 1.7-1.9 3.8-3.2 8-5.2 23-16.9 29.5-23 11-10.4 13.4-17.6 7.8-23.2l-2.9-2.9h10.7c5.9 0 16.1-.7 22.6-1.5 19.7-2.5 29.6-8.6 52.7-32.1 11-11.3 21.1-23.1 23.3-27.4.8-1.6 5.6-8.6 10.5-15.6 10.5-14.7 15.3-22.9 18.1-31 1.1-3.2 2.9-7.5 4-9.5 2.4-4.8 2.7-21 .5-26.3-2-4.7-11.2-13.8-17.7-17.4-3.4-2-7.6-5.7-11.4-10.3-11-13.2-22.9-17.1-52-17.3-19.7-.1-22.5.4-77.2 15.3-22.5 6.1-75.4 24.1-105 35.6-9.2 3.6-25.6 10-36.3 14.2-10.7 4.2-34.4 13.6-52.7 20.9-18.2 7.4-33.7 13.4-34.2 13.4-.6 0-1.1-.7-1.1-1.5s1.7-1.9 3.9-2.6c2.8-.8 4.1-1.8 4.3-3.3.2-1.3 1.4-2.3 3.5-2.9 2.4-.7 3.3-1.6 3.5-3.6.3-2.2.9-2.6 3.9-2.9 3.3-.3 3.6-.5 3.1-2.9-.5-2.5-.3-2.6 2.7-2 3.2.7 3.2.6 2.6-2.4-.6-2.5-.3-3.1 1.3-3.6 1.2-.3 2.2-1.5 2.4-2.6.2-1.5 1.2-2.3 3.3-2.7 2.3-.4 3-1.1 3.1-2.9.1-2.3 1.9-4.1 4.1-4.1.6 0 1.3-1 1.5-2.2.2-1.3 1.5-2.9 3.1-3.6 2-1 2.6-1.9 2.3-3.5-.3-1.2-.7-3.5-1.1-5-.9-4.3.3-6.5 4.6-8.7 4.1-2.1 4.6-3.4 2.8-7.2-1.3-2.9 1.9-11 5.3-13.8 1.9-1.5 2-2 1-3.3-1.1-1.3-1-1.9.6-3.4 1-1 2.7-2.3 3.8-3 1.9-1.2 1.9-1.3-.1-2.8-2-1.6-2-1.6.5-3.5 1.4-1.1 2.1-2 1.6-2s-.3-.6.3-1.4c.9-1.1.9-1.9-.1-3.7-1-1.7-1-2.3 0-2.6.6-.3 1.2-1.3 1.2-2.3 0-2.6 3.8-2.8 59.5-3.6 25.9-.4 58.5-1 72.5-1.4 40.8-1 82.9-1 104.9 0zm-257.1 7.4c-1 .7-1.8 2.5-1.8 4 0 1.4-.4 2.6-1 2.6-.5 0-1 2.4-1 5.4 0 3-.5 5.8-1.1 6.1-.6.4-.8 2.2-.4 4.5.5 3.1.1 5.1-2.4 10.2-1.7 3.4-3.1 7-3.1 7.9 0 .9-.7 2.3-1.6 3-1.4 1.1-1.9 1-3.5-1-1.1-1.3-1.9-3-1.9-3.7 0-.8-.7-2.5-1.5-3.8-2.1-3.1-1-5.3 3.6-7.7 4.1-2 4.5-3.1 2.9-7.3-1.3-3.6 2.4-12.4 5.6-13.2 2.7-.7 3.2-2.9.9-3.8-2.5-.9-1.7-2.4 2.3-4.5 4.1-2.1 7.2-1.1 4 1.3zm280.6 17c4.5 1.4 16.4 8.4 18.5 10.9.7.9-3.6 1.1-17.7.9-18.5-.4-18.9-.4-33.2 3.1-33.3 8-49 11.6-57.5 13.1-4.9.9-11.2 2-14 2.5-2.7.6-7.7 1.2-11 1.6-7.5.7-17.8 2.3-27.4 4.1-9.5 1.8-15.1 1.8-15.1 0 0-2.4 2.4-3.5 22.2-10.8 35.7-13 47.3-16.3 71.6-20.4 36.1-6.2 54.8-7.6 63.6-5zM637 487c0 .5-.4 1-1 1-.5 0-1-.5-1-1 0-.6.5-1 1-1 .6 0 1 .4 1 1zm-118 8c0 .5-.4 1-1 1-.5 0-1-.5-1-1 0-.6.5-1 1-1 .6 0 1 .4 1 1zm367.2 28.7c-2.9 4.1-5.9 6.5-13.7 11.6-7.4 4.7-13.6 8-17.1 9.1-2.1.6-2.1.5-1-2.8.7-2 1.5-3.9 1.9-4.2.4-.4.7-1.7.7-3 0-1.9 1.4-2.8 9.8-6 5.3-2 11.7-4.5 14.2-5.5 6.5-2.6 7.5-2.4 5.2.8zm29.4 5c1.1.4-3.6 2.5-14.1 6-8.7 2.9-15.9 5.2-16.1 5-.2-.2 1.5-2.2 3.8-4.5 2.7-2.8 5.3-4.4 7.7-4.8 2-.3 5-1 6.6-1.4 3.8-1 9.8-1.2 12.1-.3zM737 533c0 1.1-.4 2-1 2-.5 0-1-.2-1-.4s-.3-1.1-.6-2c-.4-1.1-.1-1.6 1-1.6.9 0 1.6.8 1.6 2zm-9.6 10c1.5 0 1.7.5 1.1 2.7-.9 3.7-1.5 4.1-2.6 2-.6-.9-1.8-1.7-2.8-1.7-2 0-3.5-2.3-2.3-3.5.4-.3 1.6-.4 2.7-.1 1.1.3 2.8.6 3.9.6zm112.6-.5c0 2.2-10.5 17.2-13 18.5-2.9 1.5-3 1.3-3-4 0-2.8-.4-5-1-5-2.9 0-.1-2.4 6.8-5.9 7.1-3.7 10.2-4.8 10.2-3.6zM718.1 549c.9 0 .2 4.8-1.3 9-.9 2.3-1 2.4-2.3.7-1.2-1.6-1.5-1.4-3 2.7-1.9 4.9-2.4 5.3-4.3 3.4-.9-.9-1.3-.7-1.8.5-.8 2.3-3.1 2.1-4.4-.2-1.5-3-1.4-3.1 3.5-3.1 5 0 5.7-1 2.3-3.2-1.9-1.3-2.1-1.8-1-3.1.8-.9 2.8-1.7 4.5-1.9 2.4-.2 3.2-.8 3.3-2.3.2-3.4.4-3.7 2-3.1.9.3 2 .6 2.5.6zm-409 6.1c13.7 3.9 14.8 4.3 16 7.1.6 1.6.9 3.2.5 3.5-1 1-17.3-2.5-22.9-4.9-4.4-1.9-9.7-6.7-9.7-8.9 0-1.3-.3-1.3 16.1 3.2zm49 16.9c9.5 3.3 17.5 6.3 17.8 6.7 1.6 1.6-28.6-5.9-32.9-8.2-2.1-1.2-4.1-4.5-2.7-4.5.3 0 8.3 2.7 17.8 6zm22.4 8c1.3.6 1.5.9.5.9-.8 0-2.2-.4-3-.9-1.8-1.2-.2-1.2 2.5 0zm320.4 117.7c4.7 2 12.5 5.8 17.3 8.5 4.7 2.7 12.4 6.4 17 8.2 11.4 4.7 18.9 8.2 18.9 9.1 0 .9-6.5 5.2-9.2 6-2 .6-2.2.5-1.1-.6 2.4-2.6 1.4-3.7-2.8-3.2-2.3.3-4.6.1-5.3-.5-.9-.8-2.4-.9-4.8-.2-1.8.6-3.5 1-3.7 1-.1 0 .1-1.2.4-2.6.7-2.5.5-2.6-2.1-2-1.9.5-3.1.3-3.6-.6-.7-1-1.4-.9-3.8.5-3.6 2.1-4.1 2.1-4.1.1 0-1.2-.7-1.5-2.5-1.2-1.4.3-2.5.1-2.5-.6 0-1.7-4.8-5.8-5.9-5.1-1.3.7-7.2-1.7-8.9-3.8-1.5-1.8-1.8-4.4-.7-7 .5-1.3.2-1.7-1.4-1.7-1.3 0-2.1-.6-2.1-1.8 0-.9-.3-2.7-.6-4-.9-3.2 1.3-2.9 11.5 1.5zM488 723.2c0 3-2.2 8.8-3.3 8.8-.7 0-2.3-.7-3.5-1.6-2.6-1.8-4.2-1.1-4.2 1.8 0 1.8-.4 2-3.5 1.5-3-.5-3.5-.3-3.5 1.4 0 1-.4 1.9-.8 1.9-1.6 0-4.7-2.8-3.9-3.6 1.3-1.3 20.1-11.3 21.5-11.3.6-.1 1.2.5 1.2 1.1zm13.2 21.4c1.3.4 1.5 1 .9 2.7-.5 1.2-1.4 2.2-2.2 2.2-.7 0-1.6 1.1-1.9 2.5-.5 2-1.2 2.4-3.4 2.2-1.8-.2-3.3.3-4.1 1.4-1.2 1.7-1.4 1.7-4.1-.1-2.1-1.3-2.5-2-1.4-2.3 2.1-.7 3-2.3 3-5.3 0-3.9 1.8-5 7-4.3 2.5.3 5.3.8 6.2 1zm282.4.3c7.1 1.1 16.3 2.3 20.4 2.7 4.1.4 13.1 2.4 19.9 4.5 6.9 2.1 14.7 4.2 17.4 4.5 3.2.5 4.5 1 3.8 1.7-1.1 1.1-62.6.5-63.7-.6-.4-.3.2-2.4 1.3-4.6 1.1-2.2 1.8-4.3 1.5-4.6-.3-.3-2.2-.5-4.3-.5-2.3 0-3.9-.5-4.3-1.5-.3-1-1.9-1.5-4.6-1.5-2.2 0-4-.5-4-1 0-1.4 1.9-1.3 16.6.9zm-68.8 6.3c.5.7 1.3 2.8 1.7 4.5.7 3.7.8 3.7 3.7 2.2 3.6-1.9 4.1.1 2.9 10.8-.7 5.4-1.5 15.4-1.9 22.3-.6 11.2-.9 12.5-2.6 12.8-1.6.4-1.8 0-1.3-2.8.5-2.4.2-3.6-1.1-4.8-1-1-2.9-4-4.1-6.8l-2.3-5.1 2.7-4.3c2.7-4.2 2.7-4.4.9-5.8-1.2-.8-3.3-1.2-5.6-.9-3 .4-3.8.1-4.3-1.4-.3-1-.1-2.7.4-3.8 1.5-2.7 1.4-3.1-.8-3.1-1.8 0-2.6-1.4-5-8.7-.9-3-.8-3.3 1.2-3.7 15.4-2.9 14.3-2.8 15.5-1.4zm38.6 35.9c.7 7.4.6 29.5-.3 43.4-.6 9.8-.6 9.7-1.9-12.1-.7-12.1-1.7-24.7-2.2-27.9-1-6-.1-9.5 2.4-9.5.9 0 1.5 2 2 6.1zm-296.9 24c.8 1.2.7 17-.1 21.5-.4 2.2-1.4 3.3-3.5 4.1-2.6 1-2.8 1.4-1.9 3.8.9 2.3.5 3.6-2.4 8.7-2.5 4.4-3.5 5.5-4 4.3-1-2.7-.7-35.1.4-38 .7-1.9 1.5-2.5 2.8-2.1 1.2.4 2.6-.1 3.7-1.4 2-2.2 4-2.6 5-.9zm152.8 58.8c3.4 1.3 9 7 13.1 13.5 5.4 8.4 7.6 17.3 7.6 30.3v11.1l-2.7 1.1c-1.6.6-7.5 1.8-13.3 2.7-12 1.9-34.6 1.5-46.7-.7l-7.2-1.3-.7-6.4c-2-19.2 4.6-38 16.6-47.6l4.5-3.6h13.2c7.2 0 14.3.4 15.6.9zM493 897.6c0 3.2 10.7 39.1 12.2 40.8.4.6.8 1.6.8 2.2 0 1.3 3.6 9 9 19.4 1.6 3 2.9 6.2 2.9 7.2.1 2.2 8.6 18.3 12.7 23.9 1.9 2.6 3.4 5 3.4 5.4 0 .3 1.2 2.5 2.8 4.8 1.5 2.3 3.6 5.9 4.7 8 1 2.2 4.5 6.9 7.7 10.5 3.2 3.7 6.9 8.3 8.2 10.3 1.4 2 5.3 6.1 8.7 9 3.4 3 10.3 9.5 15.3 14.5 6.2 6.1 11.1 10 15.1 12 5.5 2.6 6.9 2.9 16.5 2.9 10.4 0 10.6-.1 19.5-4.4 7.8-3.8 10.4-5.8 20.1-15.5 30.9-31 56.1-84.7 64.6-137.8.6-4.1 1.4-6.5 2.1-6.1.6.4.8 19.4.5 57.2-.4 53.5.2 89 1.7 101.2.3 3 .8 7.1 1.1 9.2.2 2.1.6 4.3.9 4.8.7 1.1-1.5 2-11.2 4.8-4 1.2-10.3 3-14 4.1-9.9 2.9-18 5-25.3 6.6-3.6.8-7.4 1.8-8.5 2.3-1.1.6-5.4 1.5-9.5 2.2-4.1.6-7.9 1.5-8.5 1.9-.5.4-4.6 1.3-9 1.9-4.4.7-8.9 1.7-10 2.1-1.1.5-6.2 1.4-11.4 2.1-5.2.6-10.2 1.5-11 1.9-2.2 1.2-21.9 3.3-23.2 2.5-.5-.4-19.8-.8-42.7-.9-41.5-.3-41.7-.3-51.6-3-12.6-3.3-20.7-7.7-27.6-14.7-7.5-7.6-11.7-16-14.1-28.3-2-9.5-2-12.3-1.4-48.1.7-36.9.8-38.1 2.8-40.3 1.2-1.3 3.1-4.2 4.2-6.5 3.4-7.1 5-5.6 5.2 4.8 1.4 53.6 6.7 99 13.2 112.5 2.1 4.4 3.1 5.6 5.3 5.8 5.4.6 8.3-8.3 9.2-28.3 1.3-27.7 2.7-70.3 3.6-114.2.5-25.2 1.2-47.3 1.6-49.1.7-3.2 3.4-4.6 3.4-1.6zm-37.6 9.5c1.1 5.5.7 9.9-.9 10.5-.8.4-1.5 1.5-1.5 2.5 0 1.4-.7 1.9-2.6 1.9-2.3 0-2.5.3-2 2.4.7 2.8-1 4.4-2.7 2.7-.9-.9-.8-1.6.1-3.1.6-1.1 1.2-3.5 1.2-5.4 0-2.5.5-3.5 2-3.9 1.6-.4 2-1.4 2-4.4 0-6.1 3.3-8.5 4.4-3.2zm300.1 37.1c1 30 0 85.4-1.8 102.8-2.1 20-2.4 21.1-7 23.4-2.1 1-4 1.7-4.2 1.4-.2-.2 0-3.7.5-7.8.8-6.6 1.9-20.4 5-62.4.5-6.5 1.4-25.9 2-43 1.3-34.1 1.4-35.6 3.4-35.6 1.1 0 1.5 4.3 2.1 21.2z"/><path d="M560.3 112.7c-2 .4-2.3 1.1-2.4 5.6 0 2.9-.3 7-.7 9.2l-.7 4-5.8-.3c-5.3-.4-5.9-.2-8.7 2.8-5.6 6-6.8 17.7-2.4 22.9 2.9 3.5 5.6 3.9 9.9 1.3 2.8-1.7 3-1.7 4.8.1 2.2 2.2 6 1.8 10.2-.9 3.4-2.2 3.4-4.7 0-3.8-2.5.6-2.5.5-2-3.7.4-2.4 1.5-9.2 2.6-15 1-5.8 2.2-13.3 2.5-16.7l.7-6.2-2.9.1c-1.6.1-3.9.4-5.1.6zm-5.1 22.8c.8.8-2.4 17-3.6 17.7-.6.4-1.9.8-2.8.8-1.5 0-1.8-.9-1.8-6 0-7.9 2.1-13 5.3-13 1.3 0 2.6.2 2.9.5zM520.5 113.9c-7.2 1.8-10.5 5.4-10.5 11.7 0 3.4.5 4.7 3 6.7l2.9 2.5-3 1.2c-5.1 2.1-7.9 6.5-7.9 12.1 0 3.9.5 5.5 2.4 7.4 3 3 9.5 4.9 13.9 4.1 4.1-.8 12.7-6.3 12.7-8.1 0-2.5-2-2.6-5.2-.3-4.2 2.9-10.4 3.1-12.5.3-1.7-2.3-1.1-8.1 1-10.2.8-.8 3.2-2 5.3-2.8 4.2-1.4 5.6-4.1 2.7-5.2-3.7-1.3-5.3-3.6-5.3-7.5 0-5.2 1.5-7.8 4.5-7.8 2.2 0 2.5.4 2.5 4 0 3.7.2 4 3.8 4.9 3.1.9 3.9.8 5-.6 3-4.1-.4-10.7-6.1-11.8-1.7-.4-3.9-.8-4.7-1-.8-.1-2.8 0-4.5.4zM664.3 122c-1.9.8-2.3 1.7-2.3 4.9 0 3.3-.3 4-2.2 4.3-2.9.4-3.3 4.4-.5 4.1 1.4-.1 1.7.4 1.4 2-1.8 7.4-2.8 14.7-2.5 17.7.4 5 4.2 6.2 10.3 3.2 5.3-2.5 6.2-5.5 1.5-4.6-3.5.8-3.4 1.3-1.4-9.8 1.6-8.6 1.6-8.7 4.7-9 4.4-.4 5.1-3.8.8-3.8h-3l.6-5c.6-5 .6-5-2.3-4.9-1.6 0-3.9.4-5.1.9zM571.3 131.7c-1 .3-.9 1 .2 2.6 1.2 1.9 1.1 3.4-.7 11.5-1.9 8.6-1.9 9.4-.4 11.7 2 3 4.8 3.2 9.8.7 3.5-1.8 3.7-1.8 5.2 0 2.1 2.4 5 2.3 9.7-.4 4.1-2.3 4.7-4.5 1.1-4-2.7.4-2.8-1.4-.7-10.8.8-3.6 1.4-7.8 1.5-9.3 0-2.7-.2-2.8-4.2-2.5l-4.3.3-2.1 10.4c-2 9.7-3.2 12-6.1 12.1-1.7 0-1.6-3.2.2-10 .8-3 1.5-7.2 1.5-9.3V131l-4.7.1c-2.7 0-5.4.3-6 .6zM606.7 134c-4.7 4.1-6 7.8-5.5 15s2.6 9.9 8.4 10.7c4.4.5 12.9-3.3 12.9-5.8 0-1.6-.6-1.5-5.3.3-3.2 1.2-3.5 1.1-5.4-1.2-1.7-2-1.9-3.4-1.5-7.7.7-6.4 2.6-10.7 5.1-11.1 1.6-.4 1.8 0 1.3 2.7-.5 2.4-.2 3.3 1.3 4.1 2.8 1.5 5.7 1.2 6.4-.6 2.1-5.6-1.5-9.4-9.1-9.4-4.4 0-5.8.5-8.6 3zM631.1 133.9c-3.3 3.5-5.1 9.1-5.1 15.5 0 3.9.5 5.3 2.9 7.7 3.3 3.3 5 3.5 9.2 1.4 2.7-1.4 3.1-1.4 4.6.1 1.9 1.8 6.2 1.3 10-1.1 3-2 3-4.6.1-4.2-2.1.2-2.3-.1-2-4.3.2-2.5.9-7.2 1.7-10.5.7-3.3 1.1-6.2.9-6.5-.3-.2-4.8-.6-10-.8-9.4-.3-9.5-.3-12.3 2.7zm12.4 3.3c-.3 1.3-1.1 5.4-1.8 9.3-1 6-1.5 7-3.5 7.3-2.1.3-2.2 0-2.2-5.8 0-8.1 2-13 5.5-13 2.1 0 2.5.4 2 2.2zM683 133.2c-4.7 3.3-7 8.2-7 15 0 4.5.5 6.3 2.3 8.3 3.3 3.8 8.9 4.3 14.7 1.2 2.5-1.3 4.5-3 4.5-3.8 0-1.6-.6-1.5-5.3.3-3.1 1.2-3.5 1.1-5.3-1.1-1-1.3-1.9-2.6-1.9-3 0-.4 2.5-1.5 5.5-2.5 6.3-2 9.5-5.4 9.5-10.2 0-4.3-3-6.4-9.1-6.4-3.1 0-5.7.7-7.9 2.2zm8.8 3.7c.4 2.7-2 6.6-4.9 8.2-2.1 1.1-2.2 1-1.6-2.6 1.2-7.1 5.7-11 6.5-5.6zM668.3 202.7c-1.9.4-2.3 1.1-2.3 4.1 0 2-1.4 11.2-3.1 20.3-3.5 17.9-3.4 21.5.5 22.5 3.2.8 11.6-2.9 11.6-5.2 0-1.2-.6-1.5-2.4-1-1.4.3-2.7.2-3-.2-.3-.5 1.1-8.6 3-18.2 1.9-9.5 3.4-18.5 3.2-19.9-.3-2.7-2.6-3.4-7.5-2.4zM686.1 204.6c-3.2 2.6-5.1 7.6-5.1 13.1 0 2.6-.4 3.3-2 3.3-1.5 0-2 .7-2 2.6 0 2.1.3 2.4 2 1.9 2-.6 2.1-.4 1.5 4.7-.4 2.9-1.4 9.3-2.2 14.3-2.2 12.7-2.2 12.7 1 13.7 1.5.6 3.4.8 4.1.5 1.8-.7 3.5-8.2 4.9-21.9 1.2-10.9 1.3-11.3 3.7-11.7 4.2-.5 5-4.1.9-4.1-1.8 0-1.7-.4 1.1-3.8 4.2-5.2 5.4-9.9 3.5-12.9-2.2-3.2-7.4-3.1-11.4.3zm8.9 3.5c0 2.1-3.6 8.9-4.7 8.9-1 0 .5-8 1.7-9.5 1.8-2.1 3-1.8 3 .6zM710.5 203.6c-.5.1-2.6.5-4.5.8l-3.5.6-.2 9.7c-.2 5.4-.7 12.2-1.1 15l-.9 5.3h2.8c2.5 0 2.9-.5 4.9-7.3 4.8-15.7 5.8-25 2.5-24.1zM494.5 206.2c1.6 5.2 1.6 7.8-.3 15.9-4.1 17.3-3.7 21.5 2.4 23.2 2.4.7 4.4.4 9.1-1.5l6-2.5-.6 2.4c-.5 1.8-2.2 3.1-6.4 4.8-6.8 2.7-8.6 4.1-9.8 7.3-1.5 4 1.2 7.2 6.2 7.2 8.3 0 15.2-5.7 18.9-15.8 1.8-4.6 6.3-25.4 8.5-39l.7-4.2h-4.4c-5 0-6.8 1.3-6.8 4.9 0 1.5-1 7.9-2.2 14.5-2.2 11.7-2.3 11.9-5.5 13.2-4.3 1.8-7.2 1.8-8-.2-.3-.8.7-7.6 2.1-14.9 1.5-7.4 2.5-14.3 2.1-15.5-.5-1.7-1.5-2-6.7-2-5.8 0-6 .1-5.3 2.2zM507 254c-3.5 4.9-8 6.6-8 3 0-1.2 1.3-2.7 3.8-3.9 5.5-2.9 6.7-2.7 4.2.9zM543 220.9c-6.3 1-8.7 2.5-11.1 7.3-4.3 8.4-2.2 18.9 4.3 21.2 5.9 2.1 13.9-3.9 16-12 .9-3.1 1.7-4.4 3-4.4 2 0 2.1.6.9 6.9-1.7 8.6 2.4 12 9.8 8.4 3.8-1.9 4-1.9 5.5-.1 2 2.3 4 2.3 9.3-.3 4.5-2.2 5.4-4.7 1.5-4.1-2.7.4-2.7-.5-.7-11.1 2.3-11.9 2.3-11.9-2.7-11.5l-4.3.3-2.1 10.3c-1.9 9.8-3.1 12.1-6.1 12.2-1.7 0-1.6-3.2.2-10 .8-3 1.5-7.2 1.5-9.3V221h-4.4c-2.4 0-5.1.3-6 .6-1.4.5-1.4.8 0 2.9 1.8 2.7 1.3 4-1.5 4.8-1.5.4-2-.2-2.5-2.9-.7-3.6-3-6.5-4.9-6.3-.7.1-3.2.5-5.7.8zm.4 5.5c-.7 3.1 1.1 6.6 3.6 6.6 3.1 0 3.3 1.8.8 6.3s-4.9 5.7-7.5 3.6c-2-1.7-1.3-12.8 1.1-16.4 2.1-3.2 2.8-3.2 2-.1zM589.5 221.9c-.3.5 0 2 .6 3.4.8 1.9.7 4.3-.5 10.2-.9 4.2-1.6 9-1.6 10.6 0 2.8.2 2.9 4.5 2.9 4.1 0 4.5-.2 4.5-2.4 0-4.4 3-17.1 4.5-18.5 1.1-1.1 1.5-1 2.6.7 1.3 2.1 3.2 2 6.1-.6 1.6-1.3 1.8-1.2 2.7 1.1.6 1.4 2.5 4.3 4.4 6.4 4.8 5.3 6.2 8.2 4.7 9.7-.8.8-1.3.7-2-.5-.5-.9-1.8-2.6-2.8-3.9-1.8-2.2-1.9-2.2-4.4-.6-5.3 3.4-4.4 6.7 2.3 8.8 10.5 3.1 20-6.9 13.4-14.2-1.3-1.4-1.2-2.1.5-5.5s1.8-4.2.6-5.9c-1-1.6-2.6-2.2-7-2.4-4.8-.3-5.9 0-8 2.1l-2.4 2.4-1.1-2.3c-1.2-2.8-4.1-3.1-7.6-.8-2.3 1.5-2.5 1.5-3.1 0-.4-1.2-1.9-1.6-5.4-1.6-2.7 0-5.1.4-5.5.9zm37 3.1c1 1.5-.5 5-2 5-1.7 0-3.8-3.6-3-5 .8-1.3 4.2-1.3 5 0zM640.9 223.4c-4.7 3.2-6.9 8-6.9 14.9 0 4.4.5 6.2 2.3 8.2 3.3 3.8 8.9 4.3 14.7 1.2 2.5-1.3 4.5-3 4.5-3.8 0-1.6-.6-1.5-5.2.3-2.8 1-3.5 1-5.2-.7-3.2-2.8-2.5-4 3.4-5.9 6.3-2 9.5-5.4 9.5-10.2 0-4.3-3-6.4-9-6.4-3.2 0-5.6.7-8.1 2.4zm8.9 3.9c.2 2-.5 3.6-2.8 5.8-1.7 1.7-3.3 2.9-3.6 2.6-.3-.3-.3-2.4.1-4.7 1.1-6.7 5.6-9.4 6.3-3.7zM697.7 241.8c-2.3 2.5-2.1 5.9.4 7.2 4.8 2.6 10.4-2.3 8-6.9-1.5-2.7-6.1-2.8-8.4-.3zM472 289.9c-16.1 4.9-26.5 25.5-22.1 43.9 1.5 5.9 6.9 12.8 11.8 14.8 7.6 3.2 18.5.5 26.6-6.6 3.6-3.1 3.7-3.4 2.1-5.1-2.2-2.4-2.6-2.4-7.1.6-5.2 3.6-11.7 3.2-14.7-.8-1.9-2.5-2.1-4.2-2.1-14.5 0-10.5.3-12.3 2.6-17.2 3.2-6.9 5.3-9 8.9-9 2.7 0 2.8.2 2.7 4.7-.2 4.3.1 4.9 2.7 6.1 4.8 2.4 10 2.7 11.6.7 2.4-2.9 1.9-9.9-.9-12.9-4.1-4.4-15.3-6.7-22.1-4.7zM512.1 290.1c-4.7.5-8.7 1.2-9 1.4-.3.3.3 2 1.3 3.7 2.6 4.4 2.4 7.9-2.2 28.8-5.4 25.1-5.4 24.7-3.7 25.4.8.3 4.2.1 7.5-.5 4.1-.6 7.3-.6 9.8.1 2 .5 5.7 1 8.2 1 12.9 0 21.2-7.2 21.2-18.3 0-6-2.2-9.4-8-12.2l-4.2-2.1 3.3-1.2c5.7-2.1 9-6.4 9.5-12.7.4-5.1.3-5.6-2.9-8.8-5.4-5.4-12.6-6.5-30.8-4.6zm16.7 6.1c2.9 2.9-.3 15.6-4.3 17.2-4 1.5-4.2.9-2.6-7.7.9-4.5 2-8.8 2.4-9.5 1-1.5 2.9-1.6 4.5 0zm-1.4 27c.9 1.2 1.6 4.1 1.6 6.3 0 8-5.8 14.5-11.6 13.1-2.9-.8-3-2.2-.7-13.4l1.7-8.2h3.7c2.8 0 4.2.6 5.3 2.2zM564.5 290.1c-4.3.5-8.1 1.2-8.4 1.5-.3.3.3 2.1 1.4 4 2.5 4.8 2.3 7.8-2.4 28.4-5.3 23.8-5.4 24.7-2.9 25.3 1.1.3 4.4.2 7.4-.3 3.2-.5 6.6-.5 8.6.1 8.8 2.5 16.7.3 23.6-6.4 12.8-12.4 16.4-37.5 6.7-47.2-5.5-5.4-17.7-7.4-34-5.4zm21 8c1.7 1.7 2 3.1 1.8 10.2-.3 9.9-3.4 22.7-6.9 28-2.7 4.1-7.8 6.9-11.1 6.1-2.3-.6-2.2-1.6 3.6-27.6 1.7-7.6 3.1-14.9 3.1-16.2 0-4 5.5-4.3 9.5-.5zM668.5 289.9c-14 3.6-24.5 19-24.5 36.2 0 8.1 2.4 14.1 7.5 18.8 4.9 4.5 9 5.6 17 4.8 10.2-1 17.8-6.6 22.9-16.7 8.4-16.9 6.1-35.1-5.3-41-4.5-2.2-13.1-3.3-17.6-2.1zm9.8 10.1c1.6 3 1.8 5.1 1.3 14-.6 12.4-2.7 21.2-6.2 25.8-2.2 2.8-3.1 3.3-6.2 3-5.6-.5-6.4-2.9-5.9-17.8.5-14.4 2.4-21.9 6.8-26.2 4-4 7.7-3.6 10.2 1.2zM708.8 292.6c-5.4 2.9-4.5 10.7 1.5 12.7 5.9 1.9 11.7-1.9 11.7-7.7 0-5.9-6.8-8.5-13.2-5zM704.3 312.7c-3.8.5-3.9.8-1.7 5.2 1.5 3 1.5 3.8-.5 11.6-2.8 11.3-2.8 16.9.1 18.9 3.2 2.3 8.5 1.9 14.7-.9 3.9-1.9 5.2-2.9 4.7-4.1-.3-.9-.6-2-.6-2.5s-1.1-.7-2.5-.3c-2.3.6-2.5.3-2.5-2.4 0-1.7.9-6.9 2.1-11.7 1.2-5.1 1.8-9.9 1.4-11.6-.6-2.8-.8-2.9-6.3-2.7-3.1 0-7.2.3-8.9.5zM608.6 322.6c-.3.9-.6 2.7-.6 4v2.4h13.9c15 0 15.1 0 15.1-5.6V321h-13.9c-11.7 0-14 .2-14.5 1.6zM826.5 553c-.3.5-.1 1 .4 1 .6 0 1.1-.5 1.1-1 0-.6-.2-1-.4-1-.3 0-.8.4-1.1 1z"/></svg>